<?xml version="1.0" encoding="UTF-8" standalone="no"?><!DOCTYPE svg PUBLIC "-//W3C//DTD SVG 1.1//EN" "http://www.w3.org/Graphics/SVG/1.1/DTD/svg11.dtd"><svg width="100%" height="100%" viewBox="0 0 26 26" version="1.1" xmlns="http://www.w3.org/2000/svg" xmlns:xlink="http://www.w3.org/1999/xlink" xml:space="preserve" xmlns:serif="http://www.serif.com/" style="fill-rule:evenodd;clip-rule:evenodd;stroke-linejoin:round;stroke-miterlimit:1.41421;"><path id="Forma-1" serif:id="Forma 1" d="M21.157,3.217c0.748,0.002 1.348,0.595 1.348,1.326l0,18.631c0,0.731 -0.603,1.324 -1.35,1.326l-14.477,0c-0.745,0 -1.35,-0.594 -1.35,-1.326l0,-0.639l12.999,0c1.169,-0.003 2.116,-0.934 2.116,-2.078l0,-17.24l0.714,0Zm-2.833,-2.717c0.748,0.002 1.35,0.595 1.35,1.326l0,18.631c0,0.732 -0.604,1.326 -1.35,1.326l-14.474,0c-0.745,0 -1.35,-0.594 -1.35,-1.326l0,-13.884l0.47,0l0.117,0.005l3.698,0c1.052,-0.003 1.902,-0.839 1.902,-1.867l0,-3.632c0,-0.048 -0.003,-0.095 -0.008,-0.14l0,-0.439l9.645,0Zm-6.965,16.777c0.355,-0.003 0.641,-0.282 0.641,-0.627c0,-0.346 -0.286,-0.626 -0.638,-0.626l-4.722,0c-0.352,0 -0.638,0.28 -0.638,0.626c0,0.346 0.286,0.627 0.638,0.627l4.719,0Zm4.722,-3.198c0.355,-0.003 0.638,-0.282 0.638,-0.627c0,-0.346 -0.286,-0.626 -0.638,-0.626l-9.441,0c-0.352,0 -0.638,0.28 -0.638,0.626c0,0.346 0.286,0.627 0.638,0.627l9.441,0Zm0,-3.396c0.355,-0.003 0.638,-0.282 0.638,-0.627c0,-0.346 -0.286,-0.626 -0.638,-0.626l-9.441,0c-0.352,0 -0.638,0.28 -0.638,0.626c0,0.346 0.286,0.627 0.638,0.627l9.441,0Zm-9.285,-4.857l-3.709,0c-0.508,0 -0.761,-0.602 -0.403,-0.953l4.265,-4.188c0.117,-0.115 0.257,-0.165 0.398,-0.165c0.291,0 0.571,0.223 0.571,0.559l0,3.644c-0.005,0.605 -0.502,1.095 -1.122,1.103Z" style="fill:#858f95;"/></svg>