<?xml version="1.0" encoding="UTF-8" standalone="no"?><!DOCTYPE svg PUBLIC "-//W3C//DTD SVG 1.1//EN" "http://www.w3.org/Graphics/SVG/1.1/DTD/svg11.dtd"><svg width="100%" height="100%" viewBox="0 0 26 26" version="1.1" xmlns="http://www.w3.org/2000/svg" xmlns:xlink="http://www.w3.org/1999/xlink" xml:space="preserve" xmlns:serif="http://www.serif.com/" style="fill-rule:evenodd;clip-rule:evenodd;stroke-linejoin:round;stroke-miterlimit:1.41421;"><path id="Forma-1" serif:id="Forma 1" d="M15.152,13.592l0.082,0.002c4.414,0.13 7.889,3.862 7.761,8.336l0,1.247c0,0.623 -0.231,1.324 -0.923,1.324l-18.146,0c-0.692,0 -0.923,-0.701 -0.923,-1.324l0,-1.247c0,-0.028 -0.001,-0.055 -0.002,-0.083c-0.083,-4.472 3.424,-8.165 7.845,-8.255l4.306,0Zm-2.153,-13.092c3.185,0 5.767,2.617 5.767,5.844c0,3.228 -2.582,5.845 -5.767,5.845c-3.185,0 -5.767,-2.617 -5.767,-5.845c0,-3.227 2.582,-5.844 5.767,-5.844Z" style="fill:#1589f7;"/></svg>