<?xml version="1.0" encoding="UTF-8" standalone="no"?><!DOCTYPE svg PUBLIC "-//W3C//DTD SVG 1.1//EN" "http://www.w3.org/Graphics/SVG/1.1/DTD/svg11.dtd"><svg width="100%" height="100%" viewBox="0 0 26 26" version="1.1" xmlns="http://www.w3.org/2000/svg" xmlns:xlink="http://www.w3.org/1999/xlink" xml:space="preserve" xmlns:serif="http://www.serif.com/" style="fill-rule:evenodd;clip-rule:evenodd;stroke-linejoin:round;stroke-miterlimit:1.41421;"><path id="Forma-1" serif:id="Forma 1" d="M15.322,18.881l-0.19,0.856c-0.57,0.249 -1.024,0.437 -1.363,0.567c-0.339,0.131 -0.733,0.195 -1.182,0.195c-0.689,0 -1.225,-0.186 -1.607,-0.556c-0.383,-0.372 -0.574,-0.844 -0.574,-1.415c0,-0.221 0.014,-0.448 0.043,-0.681c0.029,-0.232 0.075,-0.493 0.138,-0.786l0.712,-2.781c0.063,-0.266 0.117,-0.518 0.16,-0.757c0.044,-0.237 0.065,-0.455 0.065,-0.651c0,-0.356 -0.067,-0.604 -0.2,-0.744c-0.132,-0.139 -0.385,-0.21 -0.761,-0.21c-0.183,0 -0.372,0.032 -0.565,0.096c-0.194,0.063 -0.359,0.124 -0.498,0.181l0.19,-0.858c0.466,-0.209 0.912,-0.389 1.338,-0.538c0.426,-0.149 0.829,-0.224 1.21,-0.224c0.684,0 1.213,0.182 1.583,0.548c0.371,0.366 0.557,0.84 0.557,1.424c0,0.121 -0.012,0.334 -0.038,0.638c-0.026,0.305 -0.074,0.585 -0.143,0.839l-0.709,2.77c-0.058,0.222 -0.11,0.476 -0.155,0.763c-0.047,0.284 -0.07,0.501 -0.07,0.647c0,0.368 0.075,0.619 0.224,0.752c0.149,0.134 0.408,0.2 0.775,0.2c0.172,0 0.368,-0.033 0.586,-0.1c0.217,-0.067 0.375,-0.124 0.474,-0.175Zm0.179,-11.629c0,0.483 -0.164,0.895 -0.495,1.234c-0.33,0.34 -0.728,0.51 -1.194,0.51c-0.466,0 -0.865,-0.17 -1.199,-0.51c-0.334,-0.34 -0.501,-0.751 -0.501,-1.234c0,-0.482 0.167,-0.894 0.501,-1.238c0.333,-0.342 0.733,-0.514 1.199,-0.514c0.466,0 0.864,0.172 1.194,0.514c0.331,0.344 0.495,0.756 0.495,1.238Z" style="fill:#fff;fill-rule:nonzero;"/></svg>