<?xml version="1.0" encoding="UTF-8" standalone="no"?><!DOCTYPE svg PUBLIC "-//W3C//DTD SVG 1.1//EN" "http://www.w3.org/Graphics/SVG/1.1/DTD/svg11.dtd"><svg width="100%" height="100%" viewBox="0 0 12 12" version="1.1" xmlns="http://www.w3.org/2000/svg" xmlns:xlink="http://www.w3.org/1999/xlink" xml:space="preserve" xmlns:serif="http://www.serif.com/" style="fill-rule:evenodd;clip-rule:evenodd;stroke-linejoin:round;stroke-miterlimit:1.41421;"><path id="Forma-1" serif:id="Forma 1" d="M0.155,0.918c-0.207,-0.207 -0.207,-0.55 0,-0.764c0.214,-0.205 0.551,-0.205 0.765,0l4.589,4.586l4.597,-4.586c0.207,-0.205 0.551,-0.205 0.757,0c0.214,0.214 0.214,0.558 0,0.764l-4.589,4.578l4.589,4.586c0.214,0.207 0.214,0.55 0,0.764c-0.206,0.206 -0.55,0.206 -0.757,0l-4.597,-4.587l-4.589,4.587c-0.214,0.206 -0.551,0.206 -0.765,0c-0.207,-0.214 -0.207,-0.558 0,-0.764l4.589,-4.586l-4.589,-4.578Z" style="fill-opacity:0.501961;fill-rule:nonzero;"/></svg>