<?xml version="1.0" encoding="UTF-8" standalone="no"?><!DOCTYPE svg PUBLIC "-//W3C//DTD SVG 1.1//EN" "http://www.w3.org/Graphics/SVG/1.1/DTD/svg11.dtd"><svg width="100%" height="100%" viewBox="0 0 26 26" version="1.1" xmlns="http://www.w3.org/2000/svg" xmlns:xlink="http://www.w3.org/1999/xlink" xml:space="preserve" xmlns:serif="http://www.serif.com/" style="fill-rule:evenodd;clip-rule:evenodd;stroke-linejoin:round;stroke-miterlimit:1.41421;"><path id="Forma-1" serif:id="Forma 1" d="M14.305,12.998l3.921,-3.92c0.361,-0.362 0.361,-0.947 0,-1.307c-0.361,-0.361 -0.946,-0.361 -1.307,0l-3.921,3.921l-3.92,-3.921c-0.361,-0.361 -0.946,-0.361 -1.307,0c-0.361,0.36 -0.361,0.945 0,1.307l3.921,3.92l-3.921,3.921c-0.361,0.361 -0.361,0.946 0,1.307c0.361,0.361 0.946,0.361 1.307,0l3.92,-3.921l3.921,3.921c0.361,0.361 0.946,0.361 1.307,0c0.361,-0.361 0.361,-0.946 0,-1.307l-3.921,-3.921Z" style="fill:#fff;fill-rule:nonzero;"/></svg>