<?xml version="1.0" encoding="UTF-8" standalone="no"?><!DOCTYPE svg PUBLIC "-//W3C//DTD SVG 1.1//EN" "http://www.w3.org/Graphics/SVG/1.1/DTD/svg11.dtd"><svg width="100%" height="100%" viewBox="0 0 34 34" version="1.1" xmlns="http://www.w3.org/2000/svg" xmlns:xlink="http://www.w3.org/1999/xlink" xml:space="preserve" xmlns:serif="http://www.serif.com/" style="fill-rule:evenodd;clip-rule:evenodd;stroke-linejoin:round;stroke-miterlimit:1.41421;"><path id="Forma-1" serif:id="Forma 1" d="M28.699,18.6c0.554,-0.827 0.831,-1.739 0.831,-2.734c0,-1.152 -0.429,-2.152 -1.288,-3.003c-0.859,-0.85 -1.875,-1.275 -3.05,-1.275l-2.983,0c0.542,-1.107 0.814,-2.18 0.814,-3.22c0,-1.309 -0.198,-2.349 -0.593,-3.12c-0.396,-0.772 -0.972,-1.339 -1.729,-1.703c-0.758,-0.363 -1.61,-0.545 -2.559,-0.545c-0.577,0 -1.085,0.207 -1.526,0.621c-0.485,0.469 -0.836,1.073 -1.05,1.811c-0.215,0.738 -0.387,1.446 -0.517,2.122c-0.13,0.677 -0.331,1.155 -0.602,1.435c-0.553,0.592 -1.158,1.308 -1.813,2.147c-1.141,1.464 -1.915,2.331 -2.322,2.6l-4.643,0c-0.599,0 -1.11,0.21 -1.534,0.629c-0.423,0.419 -0.635,0.925 -0.635,1.518l0,10.735c0,0.593 0.212,1.099 0.635,1.518c0.424,0.42 0.935,0.63 1.534,0.63l4.88,0c0.249,0 1.028,0.223 2.339,0.67c1.39,0.481 2.613,0.847 3.669,1.099c1.056,0.252 2.127,0.378 3.212,0.378l2.186,0c1.593,0 2.875,-0.451 3.846,-1.351c0.972,-0.9 1.452,-2.128 1.441,-3.682c0.678,-0.861 1.017,-1.856 1.017,-2.986c0,-0.245 -0.017,-0.486 -0.051,-0.721c0.429,-0.749 0.644,-1.554 0.644,-2.415c0,-0.403 -0.051,-0.789 -0.153,-1.158Zm-21.183,7.7c-0.214,0.212 -0.468,0.319 -0.762,0.319c-0.294,0 -0.548,-0.107 -0.763,-0.319c-0.214,-0.212 -0.322,-0.464 -0.322,-0.755c0,-0.291 0.107,-0.542 0.322,-0.755c0.215,-0.212 0.469,-0.319 0.763,-0.319c0.294,0 0.548,0.107 0.762,0.319c0.215,0.213 0.322,0.464 0.322,0.755c0,0.291 -0.107,0.543 -0.322,0.755Zm19.481,-9.057c-0.243,0.514 -0.546,0.777 -0.907,0.788c0.169,0.19 0.311,0.456 0.424,0.796c0.113,0.342 0.169,0.652 0.169,0.932c0,0.771 -0.299,1.436 -0.898,1.995c0.203,0.358 0.305,0.744 0.305,1.158c0,0.413 -0.099,0.824 -0.297,1.232c-0.197,0.408 -0.465,0.702 -0.804,0.881c0.056,0.335 0.084,0.648 0.084,0.939c0,1.867 -1.085,2.801 -3.254,2.801l-2.05,0c-1.48,0 -3.412,-0.408 -5.796,-1.224c-0.056,-0.023 -0.22,-0.082 -0.491,-0.177c-0.272,-0.094 -0.472,-0.164 -0.602,-0.209c-0.13,-0.045 -0.328,-0.109 -0.593,-0.193c-0.266,-0.084 -0.48,-0.146 -0.644,-0.185c-0.164,-0.039 -0.351,-0.075 -0.559,-0.109c-0.209,-0.033 -0.387,-0.05 -0.534,-0.05l-0.542,0l0,-10.735l0.542,0c0.181,0 0.381,-0.05 0.601,-0.151c0.221,-0.1 0.447,-0.251 0.678,-0.453c0.232,-0.201 0.449,-0.399 0.653,-0.595c0.203,-0.196 0.429,-0.442 0.678,-0.738c0.248,-0.297 0.443,-0.534 0.584,-0.713c0.142,-0.179 0.319,-0.408 0.534,-0.688c0.215,-0.279 0.345,-0.447 0.39,-0.503c0.621,-0.76 1.056,-1.269 1.305,-1.526c0.463,-0.481 0.799,-1.093 1.008,-1.837c0.209,-0.744 0.381,-1.446 0.517,-2.105c0.135,-0.66 0.35,-1.135 0.644,-1.426c1.084,0 1.808,0.263 2.169,0.788c0.361,0.526 0.542,1.336 0.542,2.432c0,0.66 -0.271,1.558 -0.813,2.692c-0.543,1.136 -0.814,2.027 -0.814,2.676l5.965,0c0.566,0 1.068,0.215 1.509,0.646c0.44,0.43 0.661,0.931 0.661,1.501c0,0.392 -0.121,0.845 -0.364,1.36Z" style="fill:#5bce60;fill-rule:nonzero;"/></svg>