<?xml version="1.0" encoding="UTF-8" standalone="no"?><!DOCTYPE svg PUBLIC "-//W3C//DTD SVG 1.1//EN" "http://www.w3.org/Graphics/SVG/1.1/DTD/svg11.dtd"><svg width="100%" height="100%" viewBox="0 0 20 20" version="1.1" xmlns="http://www.w3.org/2000/svg" xmlns:xlink="http://www.w3.org/1999/xlink" xml:space="preserve" xmlns:serif="http://www.serif.com/" style="fill-rule:evenodd;clip-rule:evenodd;stroke-linejoin:round;stroke-miterlimit:1.41421;"><path id="key" d="M3.671,19l-2.425,0l6.364,-6.365c0.44,0.381 0.927,0.71 1.45,0.976l-5.389,5.389Zm3.194,-7.11l-6.365,6.364l0,-2.425l5.389,-5.389c0.266,0.523 0.595,1.009 0.976,1.45Zm11.635,-4.72c0,3.402 -2.768,6.17 -6.17,6.17c-3.402,0 -6.17,-2.768 -6.17,-6.17c0,-3.402 2.768,-6.17 6.17,-6.17c3.402,0 6.17,2.768 6.17,6.17Zm-4.686,-3.086c-0.885,0 -1.603,0.717 -1.603,1.602c0,0.885 0.718,1.603 1.603,1.603c0.885,0 1.602,-0.718 1.602,-1.603c0,-0.885 -0.717,-1.602 -1.602,-1.602Z" style="fill:#858f95;"/></svg>