<?xml version="1.0" encoding="UTF-8" standalone="no"?><!DOCTYPE svg PUBLIC "-//W3C//DTD SVG 1.1//EN" "http://www.w3.org/Graphics/SVG/1.1/DTD/svg11.dtd"><svg width="100%" height="100%" viewBox="0 0 26 26" version="1.1" xmlns="http://www.w3.org/2000/svg" xmlns:xlink="http://www.w3.org/1999/xlink" xml:space="preserve" xmlns:serif="http://www.serif.com/" style="fill-rule:evenodd;clip-rule:evenodd;stroke-linejoin:round;stroke-miterlimit:1.41421;"><path id="Forma-1" serif:id="Forma 1" d="M24.049,10.893c-0.633,-1.493 -1.486,-2.779 -2.558,-3.858c-1.071,-1.08 -2.348,-1.939 -3.83,-2.577c-1.483,-0.639 -3.036,-0.958 -4.661,-0.958c-1.625,0 -3.179,0.319 -4.661,0.958c-1.482,0.638 -2.759,1.497 -3.83,2.577c-1.072,1.079 -1.924,2.365 -2.558,3.858c-0.634,1.493 -0.951,3.058 -0.951,4.695c0,2.356 0.629,4.529 1.888,6.516c0.17,0.261 0.411,0.391 0.724,0.391l18.776,0c0.313,0 0.554,-0.13 0.723,-0.391c1.26,-1.996 1.889,-4.169 1.889,-6.516c0,-1.637 -0.317,-3.202 -0.951,-4.695Zm-12.261,-5.16c0.335,-0.337 0.739,-0.506 1.212,-0.506c0.473,0 0.877,0.169 1.212,0.506c0.335,0.337 0.502,0.744 0.502,1.221c0,0.476 -0.167,0.883 -0.502,1.221c-0.335,0.337 -0.739,0.506 -1.212,0.506c-0.473,0 -0.877,-0.169 -1.212,-0.506c-0.335,-0.338 -0.502,-0.745 -0.502,-1.221c0,-0.477 0.167,-0.884 0.502,-1.221Zm-6.147,11.076c-0.335,0.337 -0.739,0.506 -1.212,0.506c-0.474,0 -0.878,-0.169 -1.212,-0.506c-0.335,-0.337 -0.503,-0.744 -0.503,-1.221c0,-0.477 0.168,-0.884 0.503,-1.221c0.334,-0.337 0.738,-0.506 1.212,-0.506c0.473,0 0.877,0.169 1.212,0.506c0.334,0.337 0.502,0.744 0.502,1.221c0,0.477 -0.168,0.883 -0.502,1.221Zm2.571,-6.044c-0.335,0.337 -0.739,0.506 -1.212,0.506c-0.473,0 -0.877,-0.169 -1.212,-0.506c-0.335,-0.337 -0.502,-0.744 -0.502,-1.221c0,-0.477 0.167,-0.884 0.502,-1.221c0.335,-0.337 0.739,-0.506 1.212,-0.506c0.473,0 0.877,0.169 1.212,0.506c0.335,0.337 0.502,0.744 0.502,1.221c0,0.477 -0.167,0.884 -0.502,1.221Zm7.587,0.115l-1.353,5.153c0.447,0.306 0.768,0.715 0.965,1.228c0.196,0.513 0.223,1.039 0.08,1.578c-0.178,0.693 -0.576,1.219 -1.192,1.579c-0.616,0.359 -1.268,0.45 -1.955,0.269c-0.688,-0.179 -1.21,-0.579 -1.567,-1.2c-0.357,-0.621 -0.447,-1.277 -0.268,-1.97c0.143,-0.539 0.424,-0.982 0.844,-1.329c0.419,-0.346 0.897,-0.541 1.433,-0.586l1.352,-5.154c0.063,-0.234 0.197,-0.412 0.402,-0.533c0.205,-0.121 0.42,-0.151 0.643,-0.088c0.223,0.063 0.395,0.196 0.515,0.398c0.121,0.203 0.155,0.421 0.101,0.655Zm1.989,-0.115c-0.335,-0.337 -0.502,-0.744 -0.502,-1.221c0,-0.477 0.167,-0.884 0.502,-1.221c0.335,-0.337 0.739,-0.506 1.212,-0.506c0.473,0 0.877,0.169 1.212,0.506c0.335,0.337 0.502,0.744 0.502,1.221c0,0.477 -0.167,0.884 -0.502,1.221c-0.335,0.337 -0.739,0.506 -1.212,0.506c-0.473,0 -0.877,-0.169 -1.212,-0.506Zm4.995,6.044c-0.335,0.337 -0.738,0.506 -1.212,0.506c-0.473,0 -0.877,-0.169 -1.212,-0.506c-0.334,-0.337 -0.502,-0.744 -0.502,-1.221c0,-0.477 0.168,-0.884 0.502,-1.221c0.335,-0.337 0.739,-0.506 1.212,-0.506c0.474,0 0.877,0.169 1.212,0.506c0.335,0.337 0.502,0.744 0.502,1.221c0,0.477 -0.167,0.883 -0.502,1.221Z" style="fill:#1589f7;fill-rule:nonzero;"/></svg>