<?xml version="1.0" encoding="UTF-8" standalone="no"?><!DOCTYPE svg PUBLIC "-//W3C//DTD SVG 1.1//EN" "http://www.w3.org/Graphics/SVG/1.1/DTD/svg11.dtd"><svg width="100%" height="100%" viewBox="0 0 18 18" version="1.1" xmlns="http://www.w3.org/2000/svg" xmlns:xlink="http://www.w3.org/1999/xlink" xml:space="preserve" xmlns:serif="http://www.serif.com/" style="fill-rule:evenodd;clip-rule:evenodd;stroke-linejoin:round;stroke-miterlimit:1.41421;"><path id="Forma-1" serif:id="Forma 1" d="M10.093,0.5c0.266,0 0.527,0.09 0.786,0.271c0.258,0.18 0.437,0.399 0.537,0.656l0.696,1.74l3.073,0c0.093,0 0.169,0.031 0.229,0.094c0.059,0.062 0.089,0.142 0.089,0.239l0,0.667c0,0.097 -0.03,0.177 -0.089,0.24c-0.06,0.062 -0.136,0.093 -0.229,0.093l-0.955,0l0,9.877c0,0.576 -0.155,1.074 -0.467,1.495c-0.312,0.42 -0.686,0.63 -1.124,0.63l-8.275,0c-0.437,0 -0.812,-0.203 -1.124,-0.61c-0.311,-0.406 -0.467,-0.897 -0.467,-1.474l0,-9.918l-0.955,0c-0.093,0 -0.169,-0.031 -0.228,-0.093c-0.06,-0.063 -0.09,-0.143 -0.09,-0.24l0,-0.667c0,-0.097 0.03,-0.177 0.09,-0.239c0.059,-0.063 0.135,-0.094 0.228,-0.094l3.073,0l0.697,-1.74c0.099,-0.257 0.278,-0.476 0.537,-0.656c0.258,-0.181 0.519,-0.271 0.785,-0.271l3.183,0Zm2.546,14.669c0.021,-0.002 0.056,-0.031 0.104,-0.089c0.05,-0.059 0.098,-0.153 0.145,-0.281c0.046,-0.129 0.069,-0.269 0.069,-0.422l0,-9.877l-8.911,0l0,9.877c0,0.152 0.023,0.293 0.07,0.422c0.046,0.128 0.094,0.222 0.144,0.281c0.05,0.059 0.084,0.089 0.104,0.089l8.275,0Zm-6.365,-8.668c0.094,0 0.169,0.031 0.229,0.093c0.059,0.063 0.089,0.143 0.089,0.24l0,6.001c0,0.097 -0.03,0.177 -0.089,0.24c-0.06,0.062 -0.136,0.093 -0.229,0.093l-0.637,0c-0.092,0 -0.169,-0.031 -0.228,-0.093c-0.06,-0.063 -0.09,-0.143 -0.09,-0.24l0,-6.001c0,-0.097 0.03,-0.177 0.09,-0.24c0.059,-0.062 0.135,-0.093 0.228,-0.093l0.637,0Zm2.546,0c0.094,0 0.169,0.031 0.229,0.093c0.059,0.063 0.089,0.143 0.089,0.24l0,6.001c0,0.097 -0.03,0.177 -0.089,0.24c-0.06,0.062 -0.136,0.093 -0.229,0.093l-0.637,0c-0.092,0 -0.169,-0.031 -0.228,-0.093c-0.06,-0.063 -0.09,-0.143 -0.09,-0.24l0,-6.001c0,-0.097 0.03,-0.177 0.09,-0.24c0.059,-0.062 0.135,-0.093 0.228,-0.093l0.637,0Zm2.546,0c0.093,0 0.169,0.031 0.229,0.093c0.059,0.063 0.089,0.143 0.089,0.24l0,6.001c0,0.097 -0.03,0.177 -0.089,0.24c-0.06,0.062 -0.136,0.093 -0.229,0.093l-0.636,0c-0.093,0 -0.17,-0.031 -0.229,-0.093c-0.06,-0.063 -0.09,-0.143 -0.09,-0.24l0,-6.001c0,-0.097 0.03,-0.177 0.09,-0.24c0.059,-0.062 0.135,-0.093 0.229,-0.093l0.636,0Zm-0.636,-3.334l-0.478,-1.219c-0.046,-0.062 -0.103,-0.101 -0.169,-0.115l-3.153,0c-0.066,0.014 -0.122,0.052 -0.169,0.115l-0.487,1.219l4.456,0Z" style="fill:#434343;"/></svg>