<?xml version="1.0" encoding="UTF-8" standalone="no"?><!DOCTYPE svg PUBLIC "-//W3C//DTD SVG 1.1//EN" "http://www.w3.org/Graphics/SVG/1.1/DTD/svg11.dtd"><svg width="100%" height="100%" viewBox="0 0 18 18" version="1.1" xmlns="http://www.w3.org/2000/svg" xmlns:xlink="http://www.w3.org/1999/xlink" xml:space="preserve" xmlns:serif="http://www.serif.com/" style="fill-rule:evenodd;clip-rule:evenodd;stroke-linejoin:round;stroke-miterlimit:1.41421;"><path id="Forma-1-copy-3" serif:id="Forma 1 copy 3" d="M16.81,8.899l-7.424,7.436c-0.096,0.096 -0.247,0.165 -0.399,0.165c-0.151,0 -0.302,-0.069 -0.398,-0.165l-7.424,-7.436c-0.22,-0.22 -0.22,-0.578 0,-0.798c0.11,-0.11 0.247,-0.165 0.399,-0.165c0.151,0 0.288,0.055 0.398,0.165l6.462,6.471l0,-13.507c0,-0.317 0.247,-0.565 0.563,-0.565c0.317,0 0.564,0.248 0.564,0.565l0,13.507l6.461,-6.471c0.22,-0.221 0.578,-0.221 0.798,0c0.22,0.22 0.206,0.578 0,0.798Z" style="fill:#f54931;fill-rule:nonzero;"/></svg>