<?xml version="1.0" encoding="UTF-8" standalone="no"?><!DOCTYPE svg PUBLIC "-//W3C//DTD SVG 1.1//EN" "http://www.w3.org/Graphics/SVG/1.1/DTD/svg11.dtd"><svg width="100%" height="100%" viewBox="0 0 16 16" version="1.1" xmlns="http://www.w3.org/2000/svg" xmlns:xlink="http://www.w3.org/1999/xlink" xml:space="preserve" xmlns:serif="http://www.serif.com/" style="fill-rule:evenodd;clip-rule:evenodd;stroke-linejoin:round;stroke-miterlimit:1.41421;"><path id="Forma-1-copy-2" serif:id="Forma 1 copy 2" d="M14.355,13.765l0,-3.407c0,-0.325 0.256,-0.589 0.572,-0.589c0.315,0 0.571,0.264 0.571,0.589l0,3.75c0,0.043 -0.015,0.081 -0.024,0.122c0.009,0.041 0.024,0.079 0.024,0.123c0,0.324 -0.256,0.587 -0.571,0.587l-13.856,0c-0.315,0 -0.571,-0.263 -0.571,-0.587c0,-0.044 0.016,-0.082 0.024,-0.123c-0.009,-0.041 -0.024,-0.079 -0.024,-0.122l0,-3.75c0,-0.325 0.256,-0.589 0.571,-0.589c0.316,0 0.572,0.264 0.572,0.589l0,3.407l12.712,0Zm-6.32,-1.582c0.315,0 0.571,-0.264 0.571,-0.588l0,-8.588l2.489,2.56c0.111,0.115 0.258,0.173 0.404,0.173c0.146,0 0.292,-0.058 0.403,-0.173c0.224,-0.23 0.224,-0.602 0,-0.831l-3.463,-3.564c-0.223,-0.229 -0.585,-0.229 -0.808,0l-3.464,3.564c-0.223,0.229 -0.223,0.601 0,0.831c0.112,0.115 0.258,0.173 0.404,0.173c0.146,0 0.292,-0.058 0.404,-0.173l2.489,-2.56l0,8.588c0,0.324 0.255,0.588 0.571,0.588Z" style="fill:#fff;"/></svg>