<?xml version="1.0" encoding="UTF-8" standalone="no"?><!DOCTYPE svg PUBLIC "-//W3C//DTD SVG 1.1//EN" "http://www.w3.org/Graphics/SVG/1.1/DTD/svg11.dtd"><svg width="100%" height="100%" viewBox="0 0 34 34" version="1.1" xmlns="http://www.w3.org/2000/svg" xmlns:xlink="http://www.w3.org/1999/xlink" xml:space="preserve" xmlns:serif="http://www.serif.com/" style="fill-rule:evenodd;clip-rule:evenodd;stroke-linejoin:round;stroke-miterlimit:1.41421;"><path id="Forma-1" serif:id="Forma 1" d="M30.897,27.088c0,-4.789 -3.882,-8.686 -8.653,-8.686c-1.618,0 -3.123,0.463 -4.419,1.242c0.06,0.057 0.125,0.106 0.184,0.165c1.937,1.945 3.004,4.53 3.004,7.279l-1.603,0c0,-4.789 -3.882,-8.686 -8.654,-8.686c-4.771,0 -8.654,3.897 -8.654,8.686l-1.602,0c0,-2.749 1.067,-5.334 3.004,-7.279c1.117,-1.121 2.447,-1.951 3.898,-2.453c-1.554,-1.075 -2.575,-2.872 -2.575,-4.905c0,-3.281 2.66,-5.951 5.929,-5.951c2.784,0 5.11,1.942 5.744,4.543c0.634,-2.601 2.96,-4.543 5.744,-4.543c3.269,0 5.929,2.67 5.929,5.951c0,2.033 -1.021,3.83 -2.575,4.905c1.451,0.502 2.781,1.332 3.898,2.453c1.937,1.945 3.004,4.53 3.004,7.279l-1.603,0Zm-13.374,-7.714c-0.162,-0.389 -0.325,-0.777 -0.522,-1.127c0.6,-0.359 1.229,-0.664 1.888,-0.891c-1.164,-0.805 -2.028,-2.015 -2.389,-3.425c-0.361,1.41 -1.225,2.62 -2.389,3.425c1.25,0.432 2.401,1.122 3.412,2.018Zm-6.767,-11.266c-2.386,0 -4.327,1.949 -4.327,4.343c0,2.395 1.941,4.343 4.327,4.343c2.386,0 4.327,-1.948 4.327,-4.343c0,-2.394 -1.941,-4.343 -4.327,-4.343Zm15.815,4.343c0,-2.394 -1.942,-4.343 -4.327,-4.343c-2.386,0 -4.327,1.949 -4.327,4.343c0,2.395 1.941,4.343 4.327,4.343c2.385,0 4.327,-1.948 4.327,-4.343Z" style="fill:#1589f7;"/></svg>