<?xml version="1.0" encoding="UTF-8" standalone="no"?><!DOCTYPE svg PUBLIC "-//W3C//DTD SVG 1.1//EN" "http://www.w3.org/Graphics/SVG/1.1/DTD/svg11.dtd"><svg width="100%" height="100%" viewBox="0 0 26 26" version="1.1" xmlns="http://www.w3.org/2000/svg" xmlns:xlink="http://www.w3.org/1999/xlink" xml:space="preserve" xmlns:serif="http://www.serif.com/" style="fill-rule:evenodd;clip-rule:evenodd;stroke-linejoin:round;stroke-miterlimit:1.41421;"><path id="Forma-1" serif:id="Forma 1" d="M13,0.5c-6.6,0 -12,5.4 -12,12c0,6.6 5.4,12 12,12c6.6,0 12,-5.4 12,-12c0,-6.6 -5.4,-12 -12,-12Zm1.2,20.4l-2.4,0l0,-2.4l2.4,0l0,2.4Zm2.52,-9.24l-1.08,1.08c-0.96,0.84 -1.44,1.56 -1.44,3.36l-2.4,0l0,-0.6c0,-1.32 0.48,-2.52 1.44,-3.36l1.44,-1.56c0.48,-0.36 0.72,-0.96 0.72,-1.68c0,-1.32 -1.08,-2.4 -2.4,-2.4c-1.32,0 -2.4,1.08 -2.4,2.4l-2.4,0c0,-2.64 2.16,-4.8 4.8,-4.8c2.64,0 4.8,2.16 4.8,4.8c0,1.08 -0.48,2.04 -1.08,2.76Z" style="fill:#1589f7;fill-rule:nonzero;"/></svg>