<?xml version="1.0" encoding="UTF-8" standalone="no"?><!DOCTYPE svg PUBLIC "-//W3C//DTD SVG 1.1//EN" "http://www.w3.org/Graphics/SVG/1.1/DTD/svg11.dtd"><svg width="100%" height="100%" viewBox="0 0 34 34" version="1.1" xmlns="http://www.w3.org/2000/svg" xmlns:xlink="http://www.w3.org/1999/xlink" xml:space="preserve" xmlns:serif="http://www.serif.com/" style="fill-rule:evenodd;clip-rule:evenodd;stroke-linejoin:round;stroke-miterlimit:1.41421;"><path id="Forma-1" serif:id="Forma 1" d="M27.651,16.074c-1.192,-1.381 -2.838,-2.284 -4.638,-2.543l-4.13,-0.652l0,-7.255c0,-1.722 -1.392,-3.124 -3.104,-3.124l-0.046,0c-1.712,0 -3.105,1.402 -3.105,3.124l0,11.651l-4.269,-1.842c-0.858,-0.37 -1.835,-0.282 -2.615,0.235c-0.779,0.517 -1.244,1.387 -1.244,2.326l0,0.04c0,0.794 0.339,1.553 0.929,2.082l7.2,6.443l0,3.131c0,0.448 0.36,0.81 0.804,0.81c0.445,0 0.805,-0.362 0.805,-0.81l0,-3.494c0,-0.231 -0.098,-0.452 -0.27,-0.605l-7.47,-6.686c-0.247,-0.221 -0.389,-0.539 -0.389,-0.871l0,-0.04c0,-0.399 0.19,-0.754 0.521,-0.973c0.331,-0.22 0.731,-0.256 1.095,-0.099l5.39,2.325c0.05,0.022 0.102,0.039 0.156,0.05c0.081,0.017 0.162,0.02 0.242,0.012c0.009,-0.001 0.018,-0.002 0.026,-0.003c0.017,-0.003 0.034,-0.005 0.05,-0.008c0.015,-0.003 0.029,-0.007 0.043,-0.011c0.01,-0.002 0.021,-0.005 0.032,-0.008c0.016,-0.005 0.031,-0.01 0.047,-0.016c0.008,-0.003 0.017,-0.006 0.026,-0.01c0.015,-0.006 0.03,-0.013 0.045,-0.02c0.008,-0.004 0.017,-0.008 0.026,-0.013c0.013,-0.007 0.025,-0.015 0.038,-0.022c0.01,-0.006 0.02,-0.012 0.03,-0.018c0.01,-0.007 0.02,-0.015 0.031,-0.023c0.011,-0.008 0.022,-0.016 0.032,-0.024c0.009,-0.007 0.017,-0.015 0.025,-0.022c0.011,-0.01 0.023,-0.02 0.034,-0.031c0.007,-0.007 0.014,-0.015 0.021,-0.022c0.011,-0.012 0.021,-0.023 0.031,-0.035c0.008,-0.01 0.015,-0.019 0.022,-0.029c0.009,-0.011 0.017,-0.022 0.025,-0.033c0.01,-0.015 0.019,-0.03 0.028,-0.045c0.004,-0.007 0.008,-0.014 0.012,-0.021c0.039,-0.071 0.068,-0.147 0.084,-0.229c0.012,-0.054 0.017,-0.109 0.017,-0.163l0,-12.879c0,-0.829 0.67,-1.504 1.494,-1.504l0.047,0c0.824,0 1.495,0.675 1.495,1.504l0,7.779c0,0.03 0.002,0.059 0.005,0.088c-0.043,0.425 0.251,0.814 0.675,0.881l4.815,0.76c0.004,0 0.008,0.001 0.012,0.002c2.913,0.416 5.109,2.963 5.109,5.925l0,0.083c0,1.37 -0.332,2.737 -0.961,3.953l-2.183,4.221c-0.205,0.397 -0.051,0.886 0.343,1.093c0.118,0.062 0.245,0.091 0.371,0.091c0.29,0 0.571,-0.159 0.714,-0.436l2.183,-4.221c0.748,-1.446 1.143,-3.072 1.143,-4.701l0,-0.083c0,-1.831 -0.657,-3.602 -1.849,-4.985Z" style="fill:#765dff;fill-rule:nonzero;"/></svg>