<?xml version="1.0" encoding="UTF-8" standalone="no"?><!DOCTYPE svg PUBLIC "-//W3C//DTD SVG 1.1//EN" "http://www.w3.org/Graphics/SVG/1.1/DTD/svg11.dtd"><svg width="100%" height="100%" viewBox="0 0 20 20" version="1.1" xmlns="http://www.w3.org/2000/svg" xmlns:xlink="http://www.w3.org/1999/xlink" xml:space="preserve" xmlns:serif="http://www.serif.com/" style="fill-rule:evenodd;clip-rule:evenodd;stroke-linejoin:round;stroke-miterlimit:1.41421;"><path id="logout" d="M13.262,1c0.422,0.007 0.751,0.34 0.751,0.75l0,4.5c0,0.414 -0.336,0.75 -0.751,0.75c-0.415,0 -0.751,-0.336 -0.751,-0.75l0,-3.75l-6.145,0l2.607,0.782c0.318,0.095 0.536,0.387 0.536,0.718l0,12l3.002,0l0,-3.75c0,-0.414 0.336,-0.75 0.751,-0.75c0.415,0 0.751,0.336 0.751,0.75l0,4.5c0,0.414 -0.336,0.75 -0.751,0.75l-3.753,0l0,0.75c0,0.225 -0.102,0.437 -0.275,0.58c-0.135,0.111 -0.304,0.17 -0.476,0.17c-0.049,0 -0.098,-0.004 -0.147,-0.015l-7.507,-1.5c-0.351,-0.07 -0.604,-0.377 -0.604,-0.735l0,-15c0,-0.015 0.01,-0.028 0.011,-0.044c0,-0.021 -0.006,-0.042 -0.003,-0.065c0.009,-0.063 0.036,-0.118 0.06,-0.175c0.008,-0.021 0.01,-0.043 0.021,-0.063c0.049,-0.094 0.117,-0.173 0.199,-0.237c0.006,-0.005 0.009,-0.013 0.015,-0.017c0.015,-0.012 0.036,-0.013 0.052,-0.024c0.067,-0.042 0.138,-0.072 0.217,-0.093c0.034,-0.008 0.066,-0.014 0.101,-0.018l0.078,-0.014l12.011,0Zm2.692,7.5l-0.97,-0.97c-0.294,-0.292 -0.294,-0.767 0,-1.06c0.293,-0.293 0.768,-0.293 1.061,0l2.251,2.249c0.07,0.07 0.125,0.153 0.163,0.244c0.076,0.183 0.076,0.39 0,0.573c-0.038,0.093 -0.093,0.176 -0.163,0.245l-2.251,2.249c-0.146,0.147 -0.339,0.22 -0.531,0.22c-0.192,0 -0.384,-0.073 -0.53,-0.22c-0.294,-0.292 -0.294,-0.767 0,-1.061l0.97,-0.969l-4.193,0c-0.423,-0.007 -0.751,-0.341 -0.751,-0.75c0,-0.41 0.328,-0.743 0.751,-0.75l4.193,0Z" style="fill:#858f95;"/></svg>