<?xml version="1.0" encoding="UTF-8" standalone="no"?><!DOCTYPE svg PUBLIC "-//W3C//DTD SVG 1.1//EN" "http://www.w3.org/Graphics/SVG/1.1/DTD/svg11.dtd"><svg width="100%" height="100%" viewBox="0 0 22 22" version="1.1" xmlns="http://www.w3.org/2000/svg" xmlns:xlink="http://www.w3.org/1999/xlink" xml:space="preserve" xmlns:serif="http://www.serif.com/" style="fill-rule:evenodd;clip-rule:evenodd;stroke-linejoin:round;stroke-miterlimit:1.41421;"><path id="Forma-1" serif:id="Forma 1" d="M14.68,1c0.469,0.008 0.834,0.378 0.834,0.833l0,5c0,0.46 -0.373,0.834 -0.834,0.834c-0.461,0 -0.834,-0.374 -0.834,-0.834l0,-4.166l-6.828,0l2.897,0.868c0.353,0.106 0.595,0.431 0.595,0.798l0,13.334l3.336,0l0,-4.167c0,-0.46 0.373,-0.833 0.834,-0.833c0.461,0 0.834,0.373 0.834,0.833l0,5c0,0.46 -0.373,0.833 -0.834,0.833l-4.171,0l0,0.834c0,0.25 -0.112,0.485 -0.305,0.644c-0.15,0.123 -0.338,0.189 -0.529,0.189c-0.054,0 -0.109,-0.005 -0.163,-0.017l-8.341,-1.666c-0.39,-0.078 -0.671,-0.42 -0.671,-0.817l0,-16.667c0,-0.016 0.011,-0.031 0.012,-0.048c0.001,-0.024 -0.007,-0.048 -0.003,-0.073c0.01,-0.07 0.039,-0.131 0.066,-0.195c0.009,-0.023 0.012,-0.047 0.023,-0.07c0.056,-0.104 0.131,-0.191 0.222,-0.263c0.007,-0.005 0.01,-0.014 0.016,-0.019c0.018,-0.013 0.04,-0.014 0.059,-0.026c0.074,-0.047 0.153,-0.081 0.241,-0.103c0.037,-0.009 0.073,-0.016 0.112,-0.02l0.086,-0.016l13.346,0Zm2.991,8.333l-1.078,-1.077c-0.326,-0.325 -0.326,-0.853 0,-1.179c0.326,-0.325 0.853,-0.325 1.179,0l2.502,2.499c0.077,0.078 0.138,0.17 0.181,0.272c0.084,0.203 0.084,0.433 0,0.637c-0.043,0.102 -0.104,0.195 -0.181,0.271l-2.502,2.499c-0.162,0.164 -0.376,0.245 -0.589,0.245c-0.214,0 -0.428,-0.081 -0.59,-0.245c-0.326,-0.324 -0.326,-0.852 0,-1.178l1.078,-1.077l-4.659,0c-0.469,-0.008 -0.834,-0.379 -0.834,-0.834c0,-0.455 0.365,-0.825 0.834,-0.833l4.659,0Z" style="fill:#1589f7;"/></svg>