<?xml version="1.0" encoding="UTF-8" standalone="no"?><!DOCTYPE svg PUBLIC "-//W3C//DTD SVG 1.1//EN" "http://www.w3.org/Graphics/SVG/1.1/DTD/svg11.dtd"><svg width="100%" height="100%" viewBox="0 0 26 26" version="1.1" xmlns="http://www.w3.org/2000/svg" xmlns:xlink="http://www.w3.org/1999/xlink" xml:space="preserve" xmlns:serif="http://www.serif.com/" style="fill-rule:evenodd;clip-rule:evenodd;stroke-linejoin:round;stroke-miterlimit:1.41421;"><path id="Forma-1" serif:id="Forma 1" d="M3.158,15.633c0.213,0.73 0.509,1.433 0.882,2.094l-1.064,1.342c-0.348,0.439 -0.308,1.065 0.083,1.46l1.833,1.833c0.395,0.396 1.02,0.431 1.459,0.083l1.334,-1.056c0.686,0.396 1.416,0.704 2.176,0.921l0.2,1.717c0.065,0.556 0.534,0.973 1.09,0.973l2.594,0c0.556,0 1.025,-0.417 1.09,-0.973l0.191,-1.656c0.817,-0.213 1.599,-0.53 2.333,-0.943l1.29,1.021c0.439,0.348 1.064,0.309 1.459,-0.082l1.834,-1.834c0.395,-0.395 0.43,-1.02 0.082,-1.459l-1.003,-1.273c0.417,-0.721 0.742,-1.49 0.96,-2.294l1.546,-0.178c0.556,-0.066 0.973,-0.535 0.973,-1.091l0,-2.594c0,-0.556 -0.417,-1.025 -0.973,-1.09l-1.525,-0.178c-0.208,-0.795 -0.521,-1.556 -0.92,-2.268l0.938,-1.186c0.347,-0.439 0.308,-1.065 -0.083,-1.46l-1.829,-1.829c-0.395,-0.395 -1.02,-0.43 -1.459,-0.083l-1.151,0.913c-0.747,-0.439 -1.547,-0.774 -2.385,-1l-0.174,-1.49c-0.065,-0.556 -0.534,-0.973 -1.09,-0.973l-2.593,0c-0.557,0 -1.026,0.417 -1.091,0.973l-0.174,1.49c-0.86,0.231 -1.681,0.578 -2.445,1.035l-1.195,-0.948c-0.439,-0.347 -1.064,-0.308 -1.459,0.083l-1.833,1.833c-0.396,0.396 -0.431,1.021 -0.083,1.46l0.999,1.264c-0.399,0.722 -0.704,1.491 -0.903,2.29l-1.599,0.183c-0.556,0.065 -0.973,0.534 -0.973,1.09l0,2.594c0,0.556 0.417,1.025 0.973,1.09l1.685,0.196Zm9.396,-7.017c2.363,0 4.288,1.925 4.288,4.288c0,2.364 -1.925,4.288 -4.288,4.288c-2.363,0 -4.287,-1.924 -4.287,-4.288c0,-2.363 1.924,-4.288 4.287,-4.288Z" style="fill:#858f95;fill-rule:nonzero;"/></svg>