<?xml version="1.0" encoding="UTF-8" standalone="no"?><!DOCTYPE svg PUBLIC "-//W3C//DTD SVG 1.1//EN" "http://www.w3.org/Graphics/SVG/1.1/DTD/svg11.dtd"><svg width="100%" height="100%" viewBox="0 0 22 22" version="1.1" xmlns="http://www.w3.org/2000/svg" xmlns:xlink="http://www.w3.org/1999/xlink" xml:space="preserve" xmlns:serif="http://www.serif.com/" style="fill-rule:evenodd;clip-rule:evenodd;stroke-linejoin:round;stroke-miterlimit:1.41421;"><path id="Forma-1" serif:id="Forma 1" d="M19.522,3.968c-0.314,-0.312 -0.693,-0.468 -1.135,-0.468l-14.78,0c-0.442,0 -0.82,0.156 -1.135,0.468c-0.315,0.312 -0.472,0.687 -0.472,1.126l0,10.836c0,0.438 0.157,0.813 0.472,1.125c0.315,0.313 0.693,0.469 1.135,0.469l14.78,0c0.442,0 0.821,-0.156 1.135,-0.469c0.315,-0.312 0.472,-0.687 0.472,-1.125l0,-10.836c0,-0.439 -0.157,-0.814 -0.472,-1.126Zm-0.813,11.962c0,0.086 -0.032,0.161 -0.096,0.224c-0.063,0.063 -0.139,0.094 -0.226,0.094l-14.78,0c-0.087,0 -0.163,-0.031 -0.226,-0.094c-0.064,-0.063 -0.096,-0.138 -0.096,-0.224l0,-7.649c0.214,0.239 0.445,0.458 0.693,0.657c1.794,1.368 3.22,2.49 4.278,3.367c0.341,0.285 0.619,0.508 0.833,0.667c0.214,0.159 0.504,0.32 0.869,0.483c0.365,0.163 0.708,0.244 1.029,0.244l0.02,0c0.321,0 0.665,-0.081 1.029,-0.244c0.365,-0.163 0.655,-0.324 0.869,-0.483c0.214,-0.159 0.492,-0.382 0.833,-0.667c1.058,-0.877 2.484,-1.999 4.278,-3.367c0.248,-0.199 0.479,-0.418 0.693,-0.657l0,7.649Zm0,-10.577l0,0.109c0,0.392 -0.156,0.828 -0.467,1.31c-0.311,0.481 -0.648,0.865 -1.009,1.15c-1.292,1.009 -2.634,2.062 -4.027,3.157c-0.04,0.034 -0.157,0.132 -0.352,0.294c-0.193,0.163 -0.347,0.287 -0.461,0.374c-0.114,0.086 -0.263,0.191 -0.447,0.313c-0.184,0.123 -0.353,0.215 -0.507,0.274c-0.154,0.06 -0.298,0.09 -0.432,0.09l-0.01,0l-0.01,0c-0.134,0 -0.278,-0.03 -0.432,-0.09c-0.154,-0.059 -0.323,-0.151 -0.507,-0.274c-0.184,-0.122 -0.333,-0.227 -0.447,-0.313c-0.113,-0.087 -0.267,-0.211 -0.461,-0.374c-0.195,-0.162 -0.312,-0.26 -0.352,-0.294c-1.392,-1.095 -2.734,-2.148 -4.026,-3.157c-0.985,-0.77 -1.477,-1.713 -1.477,-2.829c0,-0.086 0.032,-0.16 0.096,-0.224c0.063,-0.063 0.139,-0.094 0.226,-0.094l14.78,0c0.054,0.03 0.101,0.038 0.141,0.025c0.04,-0.014 0.07,0.011 0.09,0.074c0.02,0.063 0.039,0.093 0.056,0.09c0.016,-0.003 0.027,0.038 0.03,0.125c0.003,0.086 0.005,0.129 0.005,0.129l0,0.135Z" style="fill:#434343;fill-rule:nonzero;"/></svg>