<?xml version="1.0" encoding="UTF-8" standalone="no"?><!DOCTYPE svg PUBLIC "-//W3C//DTD SVG 1.1//EN" "http://www.w3.org/Graphics/SVG/1.1/DTD/svg11.dtd"><svg width="100%" height="100%" viewBox="0 0 22 22" version="1.1" xmlns="http://www.w3.org/2000/svg" xmlns:xlink="http://www.w3.org/1999/xlink" xml:space="preserve" xmlns:serif="http://www.serif.com/" style="fill-rule:evenodd;clip-rule:evenodd;stroke-linejoin:round;stroke-miterlimit:1.41421;"><path id="Shape-1" serif:id="Shape 1" d="M17.909,14.679c-1.147,-1.194 -1.792,-2.811 -1.792,-4.499l0,-1.578c0,-2.51 -1.661,-4.617 -3.903,-5.198l0,-1.604c0,-0.718 -0.56,-1.3 -1.251,-1.3c-0.691,0 -1.251,0.582 -1.251,1.3l0,1.604c-2.242,0.581 -3.903,2.688 -3.903,5.198l0,1.578c0,1.687 -0.645,3.305 -1.792,4.498c-0.505,0.525 -0.656,1.313 -0.383,1.999c0.273,0.685 0.917,1.132 1.63,1.132l3.11,0c0,1.486 1.159,2.691 2.589,2.691c1.43,0 2.589,-1.205 2.589,-2.691l3.11,0c0.714,0 1.357,-0.447 1.63,-1.132c0.273,-0.686 0.122,-1.474 -0.383,-1.998Zm-6.946,4.5c-0.727,0 -1.318,-0.615 -1.318,-1.37l2.636,0c0,0.755 -0.591,1.37 -1.318,1.37Zm6.155,-3.008c-0.077,0.192 -0.256,0.316 -0.456,0.316l-11.398,0c-0.2,0 -0.379,-0.124 -0.455,-0.316c-0.077,-0.192 -0.035,-0.411 0.106,-0.558c1.396,-1.451 2.165,-3.381 2.165,-5.433l0,-1.578c0,-2.225 1.742,-4.036 3.883,-4.036c2.141,0 3.883,1.811 3.883,4.036l0,1.578c0,2.052 0.769,3.982 2.165,5.433c0.141,0.147 0.183,0.366 0.107,0.558Z" style="fill:#434343;fill-rule:nonzero;"/></svg>