<?xml version="1.0" encoding="UTF-8" standalone="no"?><!DOCTYPE svg PUBLIC "-//W3C//DTD SVG 1.1//EN" "http://www.w3.org/Graphics/SVG/1.1/DTD/svg11.dtd"><svg width="100%" height="100%" viewBox="0 0 34 34" version="1.1" xmlns="http://www.w3.org/2000/svg" xmlns:xlink="http://www.w3.org/1999/xlink" xml:space="preserve" xmlns:serif="http://www.serif.com/" style="fill-rule:evenodd;clip-rule:evenodd;stroke-linejoin:round;stroke-miterlimit:1.41421;"><path id="Forma-1" serif:id="Forma 1" d="M3.367,2.5c-0.653,0 -1.211,0.229 -1.674,0.684c-0.462,0.457 -0.693,1.007 -0.693,1.652c0,0.426 0.108,0.815 0.324,1.168c0.215,0.353 0.502,0.633 0.859,0.84l0,23.104c0,0.171 0.056,0.311 0.167,0.42c0.111,0.11 0.252,0.164 0.425,0.164l1.183,0c0.173,0 0.315,-0.054 0.426,-0.164c0.111,-0.109 0.166,-0.249 0.166,-0.42l0,-23.104c0.357,-0.207 0.644,-0.487 0.86,-0.84c0.215,-0.353 0.323,-0.742 0.323,-1.168c0,-0.644 -0.231,-1.195 -0.693,-1.652c-0.462,-0.456 -1.02,-0.684 -1.673,-0.684Zm29.011,2.5c-0.382,-0.218 -0.764,-0.231 -1.146,-0.036c-0.111,0.061 -0.302,0.164 -0.573,0.31c-2.318,1.363 -4.228,2.044 -5.732,2.044c-0.629,0 -1.178,-0.115 -1.646,-0.346c-1.38,-0.67 -2.669,-1.193 -3.864,-1.57c-1.196,-0.377 -2.484,-0.566 -3.865,-0.566c-0.9,0 -1.855,0.116 -2.866,0.347c-1.01,0.231 -1.951,0.532 -2.82,0.903c-0.868,0.371 -1.571,0.688 -2.107,0.949c-0.537,0.262 -1.021,0.52 -1.452,0.776c-0.382,0.243 -0.573,0.578 -0.573,1.004l0,13.541c0,0.45 0.197,0.791 0.591,1.022c0.198,0.098 0.395,0.146 0.592,0.146c0.222,0 0.425,-0.055 0.61,-0.164c1.171,-0.706 2.579,-1.326 4.225,-1.862c1.646,-0.535 3.097,-0.803 4.355,-0.803c0.714,0 1.417,0.085 2.108,0.256c0.69,0.17 1.251,0.347 1.682,0.529c0.431,0.182 1.041,0.474 1.831,0.876l0.517,0.256c0.863,0.426 1.837,0.639 2.921,0.639c1.862,0 4.136,-0.706 6.823,-2.117c0.087,-0.049 0.192,-0.104 0.315,-0.165c0.431,-0.219 0.647,-0.565 0.647,-1.04l0,-13.925c0,-0.426 -0.191,-0.76 -0.573,-1.004Zm-1.794,14.236l0,-11.242c-2.083,1.107 -3.969,1.66 -5.658,1.66c-1.011,0 -1.904,-0.194 -2.681,-0.584c-1.233,-0.596 -2.367,-1.061 -3.402,-1.396c-1.035,-0.334 -2.132,-0.502 -3.291,-0.502c-2.133,0 -4.617,0.773 -7.452,2.318l0,10.932c3.02,-1.375 5.689,-2.062 8.006,-2.062c0.679,0 1.317,0.045 1.914,0.137c0.598,0.091 1.202,0.249 1.812,0.474c0.61,0.225 1.085,0.413 1.424,0.566c0.339,0.152 0.847,0.392 1.525,0.721l0.518,0.255c0.543,0.268 1.165,0.402 1.868,0.402c1.475,-0.001 3.276,-0.557 5.417,-1.679Z" style="fill:#ffac38;"/></svg>