<?xml version="1.0" encoding="UTF-8" standalone="no"?><!DOCTYPE svg PUBLIC "-//W3C//DTD SVG 1.1//EN" "http://www.w3.org/Graphics/SVG/1.1/DTD/svg11.dtd"><svg width="100%" height="100%" viewBox="0 0 26 26" version="1.1" xmlns="http://www.w3.org/2000/svg" xmlns:xlink="http://www.w3.org/1999/xlink" xml:space="preserve" xmlns:serif="http://www.serif.com/" style="fill-rule:evenodd;clip-rule:evenodd;stroke-linejoin:round;stroke-miterlimit:1.41421;"><path id="Forma-1" serif:id="Forma 1" d="M6.5,3.5l0,2.25c0,1.241 1.009,2.25 2.25,2.25l7.5,0c1.25,-0.009 2.25,-1.015 2.25,-2.25l0,-2.25l1.5,0c0.849,0.008 1.5,0.663 1.5,1.5l0,18c0,0.841 -0.658,1.5 -1.5,1.5l-15,0c-0.842,0 -1.5,-0.659 -1.5,-1.5l0,-18c0,-0.822 0.666,-1.492 1.5,-1.5l1.5,0Zm5.781,13.281l-3,3c-0.147,0.145 -0.339,0.219 -0.531,0.219c-0.192,0 -0.384,-0.074 -0.531,-0.219l-1.5,-1.5c-0.292,-0.293 -0.292,-0.768 0,-1.061c0.292,-0.292 0.768,-0.292 1.06,0l0.971,0.97l2.469,-2.469c0.292,-0.293 0.768,-0.293 1.061,0c0.292,0.292 0.294,0.766 0.001,1.06Zm5.469,1.719c0.423,-0.009 0.75,-0.342 0.75,-0.75c0,-0.414 -0.336,-0.75 -0.75,-0.75l-3,0c-0.414,0 -0.75,0.336 -0.75,0.75c0,0.414 0.336,0.75 0.75,0.75l3,0Zm-5.469,-7.719l-3,3c-0.147,0.145 -0.339,0.219 -0.531,0.219c-0.192,0 -0.384,-0.074 -0.531,-0.219l-1.5,-1.5c-0.292,-0.292 -0.292,-0.768 0,-1.061c0.292,-0.292 0.768,-0.292 1.06,0l0.971,0.969l2.469,-2.469c0.292,-0.292 0.768,-0.292 1.061,0c0.292,0.293 0.294,0.767 0.001,1.061Zm5.469,1.719c0.423,-0.01 0.75,-0.342 0.75,-0.75c0,-0.414 -0.336,-0.75 -0.75,-0.75l-3,0c-0.414,0 -0.75,0.336 -0.75,0.75c0,0.414 0.336,0.75 0.75,0.75l3,0Zm-7.373,-10.5c0.321,-0.88 1.151,-1.5 2.123,-1.5c0.978,0 1.812,0.627 2.121,1.5l1.629,0c0.414,0 0.75,0.336 0.75,0.75l0,3c0,0.414 -0.336,0.75 -0.75,0.75l-7.5,0c-0.414,0 -0.75,-0.336 -0.75,-0.75l0,-3c0,-0.408 0.327,-0.741 0.75,-0.75l1.627,0Z" style="fill:#858f95;"/></svg>