<?xml version="1.0" encoding="UTF-8" standalone="no"?><!DOCTYPE svg PUBLIC "-//W3C//DTD SVG 1.1//EN" "http://www.w3.org/Graphics/SVG/1.1/DTD/svg11.dtd"><svg width="100%" height="100%" viewBox="0 0 22 22" version="1.1" xmlns="http://www.w3.org/2000/svg" xmlns:xlink="http://www.w3.org/1999/xlink" xml:space="preserve" xmlns:serif="http://www.serif.com/" style="fill-rule:evenodd;clip-rule:evenodd;stroke-linejoin:round;stroke-miterlimit:1.41421;"><path id="Forma-1" serif:id="Forma 1" d="M19.772,18.967l-4.632,-4.559c1.213,-1.318 1.958,-3.061 1.958,-4.979c0,-4.103 -3.38,-7.429 -7.549,-7.429c-4.17,0 -7.549,3.326 -7.549,7.429c0,4.103 3.379,7.429 7.549,7.429c1.801,0 3.453,-0.624 4.751,-1.659l4.651,4.576c0.226,0.224 0.594,0.224 0.821,0c0.227,-0.223 0.227,-0.585 0,-0.808Zm-10.223,-3.252c-3.528,0 -6.388,-2.815 -6.388,-6.286c0,-3.472 2.86,-6.286 6.388,-6.286c3.527,0 6.387,2.814 6.387,6.286c0,3.471 -2.86,6.286 -6.387,6.286Z" style="fill:#1589f7;fill-rule:nonzero;"/></svg>