<?xml version="1.0" encoding="UTF-8" standalone="no"?><!DOCTYPE svg PUBLIC "-//W3C//DTD SVG 1.1//EN" "http://www.w3.org/Graphics/SVG/1.1/DTD/svg11.dtd"><svg width="100%" height="100%" viewBox="0 0 20 20" version="1.1" xmlns="http://www.w3.org/2000/svg" xmlns:xlink="http://www.w3.org/1999/xlink" xml:space="preserve" xmlns:serif="http://www.serif.com/" style="fill-rule:evenodd;clip-rule:evenodd;stroke-linejoin:round;stroke-miterlimit:1.41421;"><path id="settings" d="M2.981,11.924c0.159,0.545 0.379,1.071 0.657,1.564l-0.793,1.002c-0.259,0.328 -0.23,0.795 0.062,1.09l1.366,1.369c0.294,0.295 0.76,0.321 1.087,0.061l0.994,-0.788c0.512,0.295 1.055,0.526 1.622,0.688l0.149,1.281c0.048,0.415 0.398,0.727 0.812,0.727l1.933,0c0.414,0 0.764,-0.312 0.812,-0.727l0.143,-1.236c0.608,-0.159 1.191,-0.395 1.738,-0.704l0.961,0.763c0.327,0.259 0.793,0.23 1.088,-0.062l1.366,-1.369c0.295,-0.295 0.321,-0.762 0.062,-1.09l-0.748,-0.95c0.311,-0.538 0.553,-1.113 0.715,-1.713l1.153,-0.133c0.414,-0.048 0.725,-0.399 0.725,-0.814l0,-1.936c0,-0.415 -0.311,-0.766 -0.725,-0.814l-1.137,-0.133c-0.155,-0.594 -0.388,-1.162 -0.686,-1.693l0.699,-0.886c0.259,-0.328 0.23,-0.795 -0.061,-1.09l-1.363,-1.365c-0.295,-0.296 -0.761,-0.321 -1.088,-0.062l-0.857,0.681c-0.557,-0.327 -1.153,-0.577 -1.778,-0.746l-0.129,-1.112c-0.049,-0.416 -0.398,-0.727 -0.813,-0.727l-1.932,0c-0.414,0 -0.764,0.311 -0.813,0.727l-0.129,1.112c-0.641,0.172 -1.253,0.432 -1.822,0.772l-0.891,-0.707c-0.327,-0.259 -0.793,-0.23 -1.087,0.062l-1.366,1.368c-0.295,0.296 -0.321,0.763 -0.062,1.09l0.745,0.944c-0.298,0.539 -0.525,1.113 -0.674,1.709l-1.191,0.137c-0.414,0.048 -0.725,0.399 -0.725,0.814l0,1.936c0,0.415 0.311,0.766 0.725,0.815l1.256,0.145Zm7.002,-5.238c1.761,0 3.195,1.437 3.195,3.201c0,1.765 -1.434,3.202 -3.195,3.202c-1.761,0 -3.195,-1.437 -3.195,-3.202c0,-1.764 1.434,-3.201 3.195,-3.201Z" style="fill:#858f95;fill-rule:nonzero;"/></svg>