<?xml version="1.0" encoding="UTF-8" standalone="no"?><!DOCTYPE svg PUBLIC "-//W3C//DTD SVG 1.1//EN" "http://www.w3.org/Graphics/SVG/1.1/DTD/svg11.dtd"><svg width="100%" height="100%" viewBox="0 0 18 18" version="1.1" xmlns="http://www.w3.org/2000/svg" xmlns:xlink="http://www.w3.org/1999/xlink" xml:space="preserve" xmlns:serif="http://www.serif.com/" style="fill-rule:evenodd;clip-rule:evenodd;stroke-linejoin:round;stroke-miterlimit:1.41421;"><path id="Forma-1" serif:id="Forma 1" d="M16.341,8.101l-7.439,-7.436c-0.096,-0.096 -0.247,-0.165 -0.399,-0.165c-0.152,0 -0.303,0.069 -0.399,0.165l-7.439,7.436c-0.22,0.22 -0.22,0.578 0,0.798c0.111,0.111 0.248,0.166 0.4,0.166c0.151,0 0.289,-0.055 0.399,-0.166l6.474,-6.471l0,13.508c0,0.316 0.248,0.564 0.565,0.564c0.317,0 0.565,-0.248 0.565,-0.564l0,-13.508l6.474,6.471c0.22,0.221 0.578,0.221 0.799,0c0.22,-0.22 0.206,-0.578 0,-0.798Z" style="fill:#33c53b;fill-rule:nonzero;"/></svg>