<?xml version="1.0" encoding="UTF-8" standalone="no"?><!DOCTYPE svg PUBLIC "-//W3C//DTD SVG 1.1//EN" "http://www.w3.org/Graphics/SVG/1.1/DTD/svg11.dtd"><svg width="100%" height="100%" viewBox="0 0 18 18" version="1.1" xmlns="http://www.w3.org/2000/svg" xmlns:xlink="http://www.w3.org/1999/xlink" xml:space="preserve" xmlns:serif="http://www.serif.com/" style="fill-rule:evenodd;clip-rule:evenodd;stroke-linejoin:round;stroke-miterlimit:1.41421;"><path id="Forma-1" serif:id="Forma 1" d="M15.094,2.5l-13.188,0c-0.774,0 -1.406,0.621 -1.406,1.385l0,9.231c0,0.76 0.629,1.384 1.406,1.384l13.188,0c0.772,0 1.406,-0.619 1.406,-1.384l0,-9.231c0,-0.761 -0.629,-1.385 -1.406,-1.385Zm-0.194,0.923l-6.37,6.272l-6.425,-6.272l12.795,0Zm-13.463,9.501l0,-8.853l4.515,4.408l-4.515,4.445Zm0.663,0.653l4.518,-4.448l1.583,1.545c0.184,0.179 0.479,0.178 0.662,-0.001l1.543,-1.52l4.494,4.424l-12.8,0Zm13.462,-0.653l-4.493,-4.424l4.493,-4.424l0,8.848Z" style="fill:#0f89f9;fill-rule:nonzero;"/></svg>